<mxfile host="app.diagrams.net" modified="2023-07-25T08:08:05.554Z" agent="Mozilla/5.0 (Macintosh; Intel Mac OS X 10_15_7) AppleWebKit/605.1.15 (KHTML, like Gecko) Version/15.6 Safari/605.1.15" version="21.6.5" etag="02vUZMo48tnDsC34MQ8C" type="github">
  <diagram name="Page-1" id="WIzUFGwjTQ-c__pTTX9k">
    <mxGraphModel>
      <root>
        <mxCell id="0" />
        <mxCell id="1" parent="0" />
      </root>
    </mxGraphModel>
  </diagram>
</mxfile>
